# xmcd CD database file
#
# Track frame offsets:
#	182
#	11080
#	27445
#	45117
#	58407
#	66915
#	81277
#	93025
#	105645
#	121705
#	134632
#	144420
#	156152
#	170815
#	182722
#	195687
#	213812
#
# Disc length: 3005 seconds
#
# Revision: 2
# Processed by: cddbd v1.4PL0 Copyright (c) Steve Scherf et al.
# Submitted via: CDex 1.51
#
DISCID=eb0bbb11
DTITLE=Morgana King - The Complete Reprise Recordings [CD2]
DYEAR=2000
DGENRE=Jazz
TTITLE0=You Fascinate Me
TTITLE1=The Moment of Truth
TTITLE2=The Shadow of your Smile
TTITLE3=The Best is Yet to Come
TTITLE4=Wild is Love
TTITLE5=I Have Loved Me a Man
TTITLE6=This is my Song
TTITLE7=The Look of Love
TTITLE8=A Time for Love
TTITLE9=Watch What Happens
TTITLE10=Sunny
TTITLE11=Walk on By
TTITLE12=What's Wrong with Me?
TTITLE13=Once I Loved
TTITLE14=Softly Say Goodbye
TTITLE15=I'd Stay with You
TTITLE16=On the South Side of Chicago
EXTD=YEAR: 2000
EXTT0=
EXTT1=
EXTT2=
EXTT3=
EXTT4=
EXTT5=
EXTT6=
EXTT7=
EXTT8=
EXTT9=
EXTT10=
EXTT11=
EXTT12=
EXTT13=
EXTT14=
EXTT15=
EXTT16=
PLAYORDER=
